<svg xmlns="http://www.w3.org/2000/svg" viewBox="0 0 220 180" role="img" aria-labelledby="title desc">
  <title id="title">North, the Wayfinder</title>
  <desc id="desc">A quiet hand-drawn guide figure holding a small compass and sprig.</desc>
  <g fill="none" stroke="#243246" stroke-linecap="round" stroke-linejoin="round">
    <path d="M55 145c20 14 67 16 91-3" stroke="#8B78B8" stroke-width="1.4" opacity=".28"/>
    <path d="M58 124c13 8 27 13 43 14 27 2 51-10 61-28" stroke="#5868F2" stroke-width="1.1" stroke-dasharray="5 8" opacity=".28"/>
    <path d="M72 61c4-29 22-46 45-47 22 5 37 23 39 51" stroke-width="3.2"/>
    <path d="M84 54c7-13 18-20 32-20 15 0 26 8 32 23" stroke-width="2.2" opacity=".82"/>
    <path d="M79 63c4 37 6 67 16 78 9 11 41 10 51-1 10-12 12-43 16-78" stroke-width="3.2"/>
    <path d="M95 71c6-8 14-12 25-12 10 0 18 4 24 12v37c-13 8-37 8-49 0z" stroke-width="2.5"/>
    <circle cx="109" cy="83" r="2.2" fill="#243246" stroke="none"/>
    <circle cx="131" cy="83" r="2.2" fill="#243246" stroke="none"/>
    <path d="M103 101c9 6 25 6 34 0" stroke-width="1.8" opacity=".65"/>
    <path d="M94 112l-30 18M146 112l26-22" stroke-width="3"/>
    <path d="M101 139v27M139 139v27" stroke-width="3"/>
    <circle cx="171" cy="86" r="16" stroke-width="2.4"/>
    <path d="M171 74v24M159 86h24M165 80l12 12M177 80l-12 12" stroke="#5868F2" stroke-width="1.3"/>
    <path d="M187 73c7-10 14-17 23-21" stroke-width="2"/>
    <path d="M200 57c0-9 5-16 14-20 1 9-4 16-14 20zM191 65c-8-1-14-6-18-15 9-1 16 4 18 15z" stroke-width="1.8"/>
    <path d="M64 130c-13-13-24-19-38-20" stroke-width="2.4"/>
    <path d="M28 110c10-9 22-10 35-1" stroke-width="1.6" opacity=".5"/>
  </g>
</svg>
